<svg width="246" height="27" viewBox="0 0 246 27" fill="none" xmlns="http://www.w3.org/2000/svg">
<path d="M236.228 25.9565C234.356 25.9565 232.58 25.6445 230.9 25.0205C229.244 24.3725 227.96 23.5445 227.048 22.5365L227.876 21.1685C228.74 22.0565 229.916 22.8125 231.404 23.4365C232.916 24.0365 234.512 24.3365 236.192 24.3365C237.872 24.3365 239.24 24.1205 240.296 23.6885C241.376 23.2325 242.168 22.6325 242.672 21.8885C243.2 21.1445 243.464 20.3165 243.464 19.4045C243.464 18.3245 243.176 17.4605 242.6 16.8125C242.024 16.1645 241.268 15.6485 240.332 15.2645C239.396 14.8805 238.376 14.5565 237.272 14.2925C236.168 14.0285 235.052 13.7525 233.924 13.4645C232.796 13.1525 231.764 12.7565 230.828 12.2765C229.892 11.7965 229.136 11.1485 228.56 10.3325C228.008 9.49249 227.732 8.41248 227.732 7.09248C227.732 5.89248 228.044 4.78849 228.668 3.78049C229.292 2.77248 230.264 1.95648 231.584 1.33249C232.904 0.708485 234.596 0.396484 236.66 0.396484C238.052 0.396484 239.42 0.600484 240.764 1.00848C242.132 1.41649 243.296 1.96849 244.256 2.66448L243.572 4.14048C242.516 3.42048 241.376 2.89248 240.152 2.55648C238.952 2.19648 237.788 2.01648 236.66 2.01648C235.052 2.01648 233.72 2.24448 232.664 2.70048C231.608 3.15648 230.828 3.76848 230.324 4.53648C229.82 5.28048 229.568 6.12048 229.568 7.05648C229.568 8.13648 229.844 9.00048 230.396 9.64849C230.972 10.2965 231.728 10.8125 232.664 11.1965C233.6 11.5805 234.632 11.9045 235.76 12.1685C236.888 12.4325 238.004 12.7205 239.108 13.0325C240.212 13.3205 241.232 13.7045 242.168 14.1845C243.104 14.6645 243.86 15.3125 244.436 16.1285C245.012 16.9445 245.3 18.0005 245.3 19.2965C245.3 20.4725 244.976 21.5765 244.328 22.6085C243.68 23.6165 242.684 24.4325 241.34 25.0565C240.02 25.6565 238.316 25.9565 236.228 25.9565Z" fill="black"/>
<path d="M205.31 25.7762V0.576172H214.346C216.458 0.576172 218.27 0.912172 219.782 1.58417C221.294 2.25617 222.458 3.22817 223.274 4.50017C224.09 5.74817 224.498 7.27217 224.498 9.07217C224.498 10.8242 224.09 12.3362 223.274 13.6082C222.458 14.8802 221.294 15.8522 219.782 16.5242C218.27 17.1962 216.458 17.5322 214.346 17.5322H206.318L207.146 16.6682V25.7762H205.31ZM207.146 16.7762L206.318 15.8762H214.346C217.058 15.8762 219.11 15.2882 220.502 14.1122C221.918 12.9122 222.626 11.2322 222.626 9.07217C222.626 6.88817 221.918 5.20817 220.502 4.03217C219.11 2.83217 217.058 2.23217 214.346 2.23217H206.318L207.146 1.33217V16.7762Z" fill="black"/>
<path d="M181.367 25.7762V0.576172H190.403C192.515 0.576172 194.327 0.912172 195.839 1.58417C197.351 2.25617 198.515 3.22817 199.331 4.50017C200.147 5.74817 200.555 7.27217 200.555 9.07217C200.555 10.8242 200.147 12.3362 199.331 13.6082C198.515 14.8802 197.351 15.8522 195.839 16.5242C194.327 17.1962 192.515 17.5322 190.403 17.5322H182.375L183.203 16.6682V25.7762H181.367ZM183.203 16.7762L182.375 15.8762H190.403C193.115 15.8762 195.167 15.2882 196.559 14.1122C197.975 12.9122 198.683 11.2322 198.683 9.07217C198.683 6.88817 197.975 5.20817 196.559 4.03217C195.167 2.83217 193.115 2.23217 190.403 2.23217H182.375L183.203 1.33217V16.7762Z" fill="black"/>
<path d="M153.212 25.7762L164.804 0.576172H166.64L178.232 25.7762H176.252L165.308 1.72817H166.1L155.192 25.7762H153.212ZM157.46 18.6842L158.072 17.1362H173.156L173.768 18.6842H157.46Z" fill="black"/>
<path d="M132.571 26.352C130.531 26.352 128.647 26.04 126.919 25.416C125.215 24.768 123.727 23.856 122.455 22.68C121.207 21.504 120.235 20.112 119.539 18.504C118.843 16.896 118.495 15.12 118.495 13.176C118.495 11.232 118.843 9.456 119.539 7.848C120.235 6.24 121.219 4.848 122.491 3.672C123.763 2.496 125.263 1.596 126.991 0.972C128.743 0.324 130.663 0 132.751 0C135.247 0 137.467 0.42 139.411 1.26C141.379 2.1 142.999 3.3 144.271 4.86L138.835 9.648C138.043 8.736 137.179 8.052 136.243 7.596C135.331 7.116 134.311 6.876 133.183 6.876C132.247 6.876 131.395 7.02 130.627 7.308C129.883 7.596 129.247 8.016 128.719 8.568C128.191 9.12 127.783 9.78 127.495 10.548C127.207 11.316 127.063 12.192 127.063 13.176C127.063 14.112 127.207 14.976 127.495 15.768C127.783 16.536 128.191 17.196 128.719 17.748C129.247 18.3 129.871 18.732 130.591 19.044C131.335 19.332 132.163 19.476 133.075 19.476C134.035 19.476 134.971 19.32 135.883 19.008C136.795 18.672 137.767 18.108 138.799 17.316L143.551 23.148C142.015 24.18 140.263 24.972 138.295 25.524C136.327 26.076 134.419 26.352 132.571 26.352ZM136.171 22.068V12.492H143.551V23.148L136.171 22.068Z" fill="black"/>
<path d="M92.0095 25.7762V0.576172H98.9935L111.81 15.9122H108.57V0.576172H116.85V25.7762H109.866L97.0495 10.4402H100.29V25.7762H92.0095Z" fill="black"/>
<path d="M80.8635 25.7762V0.576172H89.3595V25.7762H80.8635Z" fill="black"/>
<path d="M55.4794 25.7762V0.576172H67.6114C69.9634 0.576172 71.9914 0.960172 73.6954 1.72817C75.4234 2.49617 76.7554 3.60017 77.6914 5.04017C78.6274 6.45617 79.0954 8.13617 79.0954 10.0802C79.0954 12.0242 78.6274 13.7042 77.6914 15.1202C76.7554 16.5122 75.4234 17.5802 73.6954 18.3242C71.9914 19.0682 69.9634 19.4402 67.6114 19.4402H60.1954L63.9754 15.9482V25.7762H55.4794ZM70.5634 25.7762L64.3714 16.5962H73.3714L79.6354 25.7762H70.5634Z" fill="black"/>
<path d="M39.6158 26.352C37.5758 26.352 35.6797 26.028 33.9277 25.38C32.1997 24.732 30.6998 23.82 29.4278 22.644C28.1558 21.444 27.1598 20.04 26.4398 18.432C25.7438 16.824 25.3958 15.072 25.3958 13.176C25.3958 11.256 25.7438 9.504 26.4398 7.92C27.1598 6.312 28.1558 4.92 29.4278 3.744C30.6998 2.544 32.1997 1.62 33.9277 0.972C35.6797 0.324 37.5758 0 39.6158 0C41.6798 0 43.5758 0.324 45.3038 0.972C47.0318 1.62 48.5318 2.544 49.8038 3.744C51.0758 4.92 52.0598 6.312 52.7558 7.92C53.4758 9.504 53.8358 11.256 53.8358 13.176C53.8358 15.072 53.4758 16.824 52.7558 18.432C52.0598 20.04 51.0758 21.444 49.8038 22.644C48.5318 23.82 47.0318 24.732 45.3038 25.38C43.5758 26.028 41.6798 26.352 39.6158 26.352Z" fill="black"/>
<path d="M0 25.7762V0.576172H13.464C16.944 0.576172 19.512 1.20017 21.168 2.44817C22.824 3.67217 23.652 5.24417 23.652 7.16417C23.652 8.43617 23.292 9.57617 22.572 10.5842C21.876 11.5682 20.856 12.3482 19.512 12.9242C18.168 13.5002 16.512 13.7882 14.544 13.7882L15.264 11.8442C17.232 11.8442 18.924 12.1202 20.34 12.6722C21.78 13.2242 22.884 14.0282 23.652 15.0842C24.444 16.1162 24.84 17.3642 24.84 18.8282C24.84 21.0122 23.928 22.7162 22.104 23.9402C20.304 25.1642 17.664 25.7762 14.184 25.7762H0Z" fill="black"/>
</svg>
